<svg width="375" height="500" viewBox="0 0 375 500" fill="none" xmlns="http://www.w3.org/2000/svg">
<path d="M163.519 182.414L151.796 203.262C151.039 204.608 151.538 206.291 152.917 207.048L171.274 217.118C172.673 217.885 174.451 217.413 175.246 216.063L197.684 178.001H171.202C167.997 178.001 165.048 179.695 163.519 182.414V182.414Z" fill="#29A361"/>
<path d="M197.684 178L175.247 216.062C174.45 217.412 172.673 217.885 171.275 217.118L166.484 214.491C167.652 214.672 168.867 214.154 169.486 213.103L190.183 178H197.684Z" fill="#248F55"/>
<path d="M222.234 198.187L214.148 182.651C212.664 179.801 209.642 178.001 206.337 178.001H182.958L200.908 207.392C200.849 207.417 200.79 207.443 200.732 207.468C199.602 207.959 199.649 209.522 200.805 209.95L216.304 215.695C217.023 215.961 217.828 215.615 218.104 214.922L224.079 199.906C224.521 198.795 223.361 197.723 222.234 198.187V198.187Z" fill="#34CB79"/>
<path d="M224.079 199.904L218.103 214.92C217.828 215.616 217.021 215.962 216.304 215.694L211.614 213.956L217.204 199.904C217.522 199.107 217.015 198.332 216.286 198.128C215.593 197.934 215.001 197.495 214.676 196.873L207.273 182.65C205.79 179.801 202.769 178 199.462 178H206.337C209.641 178 212.663 179.801 214.148 182.65L222.233 198.187C223.362 197.724 224.52 198.794 224.079 199.904Z" fill="#2FB86E"/>
<path d="M206.614 258.085C206.397 257.222 205.244 256.853 204.54 257.532L192.426 269.223C191.942 269.69 191.942 270.446 192.426 270.912L204.587 282.648C205.285 283.323 206.427 282.963 206.656 282.115H224.54C227.833 282.115 230.846 280.329 232.336 277.496L242.54 258.084H206.614V258.085Z" fill="#29A361"/>
<path d="M221.711 258.085L227.51 266.553C228.821 268.468 228.966 270.914 227.89 272.96L225.505 277.496C224.018 280.329 221.003 282.116 217.712 282.116H224.54C227.832 282.116 230.846 280.329 232.336 277.496L242.54 258.085H221.711V258.085Z" fill="#248F55"/>
<path d="M182.208 279.883V259.221C182.208 257.669 180.904 256.409 179.295 256.409H131.298L143.65 278.295C145.181 281.007 148.125 282.695 151.326 282.695H179.295C180.904 282.695 182.208 281.437 182.208 279.883Z" fill="#29A361"/>
<path d="M151.653 256.411L140.994 273.591L131.298 256.411H151.653Z" fill="#248F55"/>
<path d="M182.207 259.223V279.885C182.207 281.438 180.903 282.696 179.295 282.696H171.65C173.259 282.696 174.563 281.438 174.563 279.885V259.223C174.563 257.67 173.259 256.412 171.65 256.412H179.295C180.903 256.411 182.207 257.67 182.207 259.223Z" fill="#248F55"/>
<path d="M158.761 238.153L156.605 222.498C156.499 221.725 155.763 221.182 154.962 221.284L138.679 223.372C137.453 223.529 136.996 224.969 137.836 225.77L127.559 240.064C125.675 242.685 125.484 246.107 127.065 248.909L138.248 268.722L156.405 239.451C156.411 239.456 156.418 239.461 156.424 239.465C157.461 240.224 158.932 239.397 158.761 238.153Z" fill="#34CB79"/>
<path d="M156.424 239.465C156.418 239.46 156.411 239.455 156.406 239.45L138.248 268.721L134.514 262.105L149.293 238.276L149.703 237.615C149.927 237.254 150.365 237.098 150.793 237.178C150.795 237.179 150.797 237.179 150.8 237.179C151.711 237.336 152.646 236.603 152.506 235.598L150.612 221.84L154.96 221.284C155.762 221.181 156.5 221.726 156.606 222.497L158.762 238.153C158.933 239.398 157.46 240.224 156.424 239.465V239.465Z" fill="#2FB86E"/>
<path d="M247.452 238.988L233.396 219.331C232.533 218.126 230.856 217.761 229.541 218.493L211.222 228.695C209.769 229.505 209.322 231.33 210.248 232.681L236.072 270.389L248.054 247.597C249.504 244.838 249.273 241.535 247.452 238.988V238.988Z" fill="#34CB79"/>
<path d="M248.054 247.597L236.07 270.387L232.051 264.516L240.946 247.596C242.396 244.838 242.166 241.535 240.345 238.988L226.785 220.029L229.542 218.493C230.856 217.76 232.534 218.125 233.395 219.332L247.453 238.989C249.274 241.535 249.504 244.838 248.054 247.597V247.597Z" fill="#2FB86E"/>
<path d="M137.395 328.616C137.263 329.744 136.846 330.616 136.143 331.231C135.444 331.841 134.514 332.146 133.352 332.146C132.092 332.146 131.082 331.695 130.32 330.792C129.563 329.888 129.185 328.68 129.185 327.166V326.141C129.185 325.149 129.36 324.278 129.712 323.526C130.068 322.774 130.571 322.198 131.221 321.797C131.87 321.392 132.622 321.189 133.477 321.189C134.609 321.189 135.518 321.507 136.201 322.142C136.885 322.771 137.283 323.646 137.395 324.764H135.981C135.859 323.914 135.593 323.299 135.183 322.918C134.778 322.537 134.209 322.347 133.477 322.347C132.578 322.347 131.873 322.679 131.36 323.343C130.852 324.007 130.598 324.952 130.598 326.177V327.21C130.598 328.367 130.84 329.288 131.323 329.971C131.807 330.655 132.483 330.997 133.352 330.997C134.133 330.997 134.731 330.821 135.146 330.469C135.566 330.113 135.845 329.495 135.981 328.616H137.395ZM144.001 332C143.923 331.844 143.86 331.565 143.811 331.165C143.181 331.819 142.429 332.146 141.555 332.146C140.774 332.146 140.132 331.927 139.629 331.487C139.131 331.043 138.882 330.481 138.882 329.803C138.882 328.978 139.194 328.338 139.819 327.884C140.449 327.425 141.333 327.195 142.471 327.195H143.789V326.573C143.789 326.099 143.647 325.723 143.364 325.445C143.081 325.162 142.664 325.02 142.112 325.02C141.628 325.02 141.223 325.142 140.896 325.386C140.569 325.63 140.405 325.926 140.405 326.272H139.043C139.043 325.877 139.182 325.496 139.46 325.13C139.744 324.759 140.125 324.466 140.603 324.251C141.086 324.036 141.616 323.929 142.192 323.929C143.105 323.929 143.821 324.158 144.338 324.617C144.856 325.071 145.125 325.699 145.144 326.5V330.147C145.144 330.875 145.237 331.453 145.422 331.883V332H144.001ZM141.753 330.967C142.178 330.967 142.581 330.857 142.961 330.638C143.342 330.418 143.618 330.132 143.789 329.781V328.155H142.727C141.067 328.155 140.237 328.641 140.237 329.612C140.237 330.037 140.378 330.369 140.662 330.608C140.945 330.848 141.309 330.967 141.753 330.967ZM151.099 325.291C150.894 325.257 150.671 325.24 150.432 325.24C149.543 325.24 148.94 325.618 148.623 326.375V332H147.268V324.075H148.586L148.608 324.991C149.053 324.283 149.683 323.929 150.498 323.929C150.762 323.929 150.962 323.963 151.099 324.031V325.291ZM156.182 325.291C155.977 325.257 155.754 325.24 155.515 325.24C154.626 325.24 154.023 325.618 153.706 326.375V332H152.351V324.075H153.669L153.691 324.991C154.136 324.283 154.766 323.929 155.581 323.929C155.845 323.929 156.045 323.963 156.182 324.031V325.291ZM160.576 332.146C159.502 332.146 158.628 331.795 157.954 331.092C157.28 330.384 156.943 329.439 156.943 328.257V328.008C156.943 327.222 157.092 326.521 157.39 325.906C157.693 325.286 158.113 324.803 158.65 324.456C159.192 324.104 159.778 323.929 160.408 323.929C161.438 323.929 162.239 324.268 162.81 324.947C163.381 325.625 163.667 326.597 163.667 327.862V328.426H158.298C158.318 329.207 158.545 329.839 158.979 330.323C159.419 330.801 159.976 331.041 160.649 331.041C161.128 331.041 161.533 330.943 161.865 330.748C162.197 330.552 162.488 330.293 162.737 329.971L163.564 330.616C162.9 331.636 161.904 332.146 160.576 332.146ZM160.408 325.042C159.861 325.042 159.402 325.242 159.031 325.643C158.66 326.038 158.43 326.595 158.342 327.312H162.312V327.21C162.273 326.521 162.087 325.989 161.755 325.613C161.423 325.232 160.974 325.042 160.408 325.042ZM164.919 327.972C164.919 326.736 165.205 325.755 165.776 325.027C166.348 324.295 167.104 323.929 168.047 323.929C169.014 323.929 169.768 324.271 170.31 324.954L170.376 324.075H171.614V331.81C171.614 332.835 171.309 333.643 170.698 334.234C170.093 334.825 169.277 335.12 168.252 335.12C167.681 335.12 167.122 334.998 166.575 334.754C166.028 334.51 165.61 334.175 165.322 333.75L166.025 332.938C166.606 333.655 167.317 334.014 168.157 334.014C168.816 334.014 169.329 333.829 169.695 333.458C170.066 333.086 170.251 332.564 170.251 331.89V331.209C169.709 331.834 168.97 332.146 168.032 332.146C167.104 332.146 166.353 331.773 165.776 331.026C165.205 330.279 164.919 329.261 164.919 327.972ZM166.282 328.125C166.282 329.019 166.465 329.722 166.831 330.235C167.197 330.743 167.71 330.997 168.369 330.997C169.224 330.997 169.851 330.608 170.251 329.832V326.214C169.836 325.457 169.214 325.079 168.384 325.079C167.725 325.079 167.209 325.335 166.838 325.848C166.467 326.36 166.282 327.12 166.282 328.125ZM178.557 332C178.479 331.844 178.416 331.565 178.367 331.165C177.737 331.819 176.985 332.146 176.111 332.146C175.33 332.146 174.688 331.927 174.185 331.487C173.687 331.043 173.438 330.481 173.438 329.803C173.438 328.978 173.75 328.338 174.375 327.884C175.005 327.425 175.889 327.195 177.026 327.195H178.345V326.573C178.345 326.099 178.203 325.723 177.92 325.445C177.637 325.162 177.219 325.02 176.667 325.02C176.184 325.02 175.779 325.142 175.452 325.386C175.125 325.63 174.961 325.926 174.961 326.272H173.599C173.599 325.877 173.738 325.496 174.016 325.13C174.299 324.759 174.68 324.466 175.159 324.251C175.642 324.036 176.172 323.929 176.748 323.929C177.661 323.929 178.376 324.158 178.894 324.617C179.412 325.071 179.68 325.699 179.7 326.5V330.147C179.7 330.875 179.792 331.453 179.978 331.883V332H178.557ZM176.309 330.967C176.733 330.967 177.136 330.857 177.517 330.638C177.898 330.418 178.174 330.132 178.345 329.781V328.155H177.283C175.623 328.155 174.792 328.641 174.792 329.612C174.792 330.037 174.934 330.369 175.217 330.608C175.5 330.848 175.864 330.967 176.309 330.967ZM183.105 324.075L183.149 325.071C183.755 324.31 184.546 323.929 185.522 323.929C187.197 323.929 188.042 324.874 188.057 326.763V332H186.702V326.756C186.697 326.185 186.565 325.762 186.306 325.489C186.052 325.215 185.654 325.079 185.112 325.079C184.673 325.079 184.287 325.196 183.955 325.43C183.623 325.665 183.364 325.972 183.179 326.353V332H181.824V324.075H183.105ZM189.771 327.972C189.771 326.756 190.059 325.779 190.635 325.042C191.211 324.3 191.965 323.929 192.898 323.929C193.826 323.929 194.561 324.246 195.103 324.881V320.75H196.458V332H195.212L195.146 331.15C194.604 331.814 193.85 332.146 192.883 332.146C191.965 332.146 191.216 331.771 190.635 331.019C190.059 330.267 189.771 329.285 189.771 328.074V327.972ZM191.125 328.125C191.125 329.024 191.311 329.727 191.682 330.235C192.053 330.743 192.566 330.997 193.22 330.997C194.08 330.997 194.707 330.611 195.103 329.839V326.199C194.697 325.452 194.075 325.079 193.235 325.079C192.571 325.079 192.053 325.335 191.682 325.848C191.311 326.36 191.125 327.12 191.125 328.125ZM198.208 327.964C198.208 327.188 198.359 326.49 198.662 325.87C198.97 325.25 199.395 324.771 199.937 324.434C200.483 324.097 201.106 323.929 201.804 323.929C202.883 323.929 203.755 324.302 204.419 325.049C205.088 325.796 205.422 326.79 205.422 328.03V328.125C205.422 328.897 205.273 329.59 204.976 330.206C204.683 330.816 204.26 331.292 203.708 331.634C203.162 331.976 202.532 332.146 201.819 332.146C200.745 332.146 199.873 331.773 199.204 331.026C198.54 330.279 198.208 329.29 198.208 328.06V327.964ZM199.57 328.125C199.57 329.004 199.773 329.71 200.178 330.242C200.588 330.774 201.135 331.041 201.819 331.041C202.507 331.041 203.054 330.772 203.459 330.235C203.865 329.693 204.067 328.936 204.067 327.964C204.067 327.095 203.86 326.392 203.445 325.855C203.035 325.313 202.488 325.042 201.804 325.042C201.135 325.042 200.596 325.308 200.186 325.84C199.775 326.373 199.57 327.134 199.57 328.125ZM215.735 332C215.657 331.844 215.593 331.565 215.544 331.165C214.915 331.819 214.163 332.146 213.289 332.146C212.507 332.146 211.865 331.927 211.362 331.487C210.864 331.043 210.615 330.481 210.615 329.803C210.615 328.978 210.928 328.338 211.553 327.884C212.183 327.425 213.066 327.195 214.204 327.195H215.522V326.573C215.522 326.099 215.381 325.723 215.098 325.445C214.814 325.162 214.397 325.02 213.845 325.02C213.362 325.02 212.957 325.142 212.629 325.386C212.302 325.63 212.139 325.926 212.139 326.272H210.776C210.776 325.877 210.916 325.496 211.194 325.13C211.477 324.759 211.858 324.466 212.336 324.251C212.82 324.036 213.35 323.929 213.926 323.929C214.839 323.929 215.554 324.158 216.072 324.617C216.589 325.071 216.858 325.699 216.877 326.5V330.147C216.877 330.875 216.97 331.453 217.156 331.883V332H215.735ZM213.486 330.967C213.911 330.967 214.314 330.857 214.695 330.638C215.076 330.418 215.352 330.132 215.522 329.781V328.155H214.46C212.8 328.155 211.97 328.641 211.97 329.612C211.97 330.037 212.112 330.369 212.395 330.608C212.678 330.848 213.042 330.967 213.486 330.967ZM225.696 328.125C225.696 329.332 225.42 330.303 224.868 331.041C224.316 331.778 223.569 332.146 222.627 332.146C221.665 332.146 220.908 331.841 220.356 331.231V335.047H219.001V324.075H220.239L220.305 324.954C220.857 324.271 221.624 323.929 222.605 323.929C223.557 323.929 224.309 324.288 224.861 325.005C225.417 325.723 225.696 326.722 225.696 328.001V328.125ZM224.341 327.972C224.341 327.078 224.15 326.373 223.77 325.855C223.389 325.337 222.866 325.079 222.202 325.079C221.382 325.079 220.767 325.442 220.356 326.17V329.957C220.762 330.679 221.382 331.041 222.217 331.041C222.866 331.041 223.381 330.784 223.762 330.271C224.148 329.754 224.341 328.987 224.341 327.972ZM234.119 328.125C234.119 329.332 233.843 330.303 233.291 331.041C232.739 331.778 231.992 332.146 231.05 332.146C230.088 332.146 229.331 331.841 228.779 331.231V335.047H227.424V324.075H228.662L228.728 324.954C229.28 324.271 230.046 323.929 231.028 323.929C231.98 323.929 232.732 324.288 233.284 325.005C233.84 325.723 234.119 326.722 234.119 328.001V328.125ZM232.764 327.972C232.764 327.078 232.573 326.373 232.192 325.855C231.812 325.337 231.289 325.079 230.625 325.079C229.805 325.079 229.189 325.442 228.779 326.17V329.957C229.185 330.679 229.805 331.041 230.64 331.041C231.289 331.041 231.804 330.784 232.185 330.271C232.571 329.754 232.764 328.987 232.764 327.972ZM235.876 331.29C235.876 331.055 235.945 330.86 236.082 330.704C236.223 330.547 236.433 330.469 236.711 330.469C236.99 330.469 237.2 330.547 237.341 330.704C237.488 330.86 237.561 331.055 237.561 331.29C237.561 331.514 237.488 331.702 237.341 331.854C237.2 332.005 236.99 332.081 236.711 332.081C236.433 332.081 236.223 332.005 236.082 331.854C235.945 331.702 235.876 331.514 235.876 331.29ZM239.832 331.29C239.832 331.055 239.9 330.86 240.037 330.704C240.178 330.547 240.388 330.469 240.667 330.469C240.945 330.469 241.155 330.547 241.296 330.704C241.443 330.86 241.516 331.055 241.516 331.29C241.516 331.514 241.443 331.702 241.296 331.854C241.155 332.005 240.945 332.081 240.667 332.081C240.388 332.081 240.178 332.005 240.037 331.854C239.9 331.702 239.832 331.514 239.832 331.29ZM243.787 331.29C243.787 331.055 243.855 330.86 243.992 330.704C244.133 330.547 244.343 330.469 244.622 330.469C244.9 330.469 245.11 330.547 245.251 330.704C245.398 330.86 245.471 331.055 245.471 331.29C245.471 331.514 245.398 331.702 245.251 331.854C245.11 332.005 244.9 332.081 244.622 332.081C244.343 332.081 244.133 332.005 243.992 331.854C243.855 331.702 243.787 331.514 243.787 331.29Z" fill="#6C6C80"/>
</svg>
